<svg xmlns="http://www.w3.org/2000/svg" viewBox="0 0 600 520" fill="none">
<g stroke="#1B1F22" stroke-opacity="0.06" stroke-width="1">
<line x1="0" y1="0" x2="0" y2="520"/>
<line x1="24" y1="0" x2="24" y2="520"/>
<line x1="48" y1="0" x2="48" y2="520"/>
<line x1="72" y1="0" x2="72" y2="520"/>
<line x1="96" y1="0" x2="96" y2="520"/>
<line x1="120" y1="0" x2="120" y2="520"/>
<line x1="144" y1="0" x2="144" y2="520"/>
<line x1="168" y1="0" x2="168" y2="520"/>
<line x1="192" y1="0" x2="192" y2="520"/>
<line x1="216" y1="0" x2="216" y2="520"/>
<line x1="240" y1="0" x2="240" y2="520"/>
<line x1="264" y1="0" x2="264" y2="520"/>
<line x1="288" y1="0" x2="288" y2="520"/>
<line x1="312" y1="0" x2="312" y2="520"/>
<line x1="336" y1="0" x2="336" y2="520"/>
<line x1="360" y1="0" x2="360" y2="520"/>
<line x1="384" y1="0" x2="384" y2="520"/>
<line x1="408" y1="0" x2="408" y2="520"/>
<line x1="432" y1="0" x2="432" y2="520"/>
<line x1="456" y1="0" x2="456" y2="520"/>
<line x1="480" y1="0" x2="480" y2="520"/>
<line x1="504" y1="0" x2="504" y2="520"/>
<line x1="528" y1="0" x2="528" y2="520"/>
<line x1="552" y1="0" x2="552" y2="520"/>
<line x1="576" y1="0" x2="576" y2="520"/>
<line x1="600" y1="0" x2="600" y2="520"/>
<line x1="0" y1="0" x2="600" y2="0"/>
<line x1="0" y1="24" x2="600" y2="24"/>
<line x1="0" y1="48" x2="600" y2="48"/>
<line x1="0" y1="72" x2="600" y2="72"/>
<line x1="0" y1="96" x2="600" y2="96"/>
<line x1="0" y1="120" x2="600" y2="120"/>
<line x1="0" y1="144" x2="600" y2="144"/>
<line x1="0" y1="168" x2="600" y2="168"/>
<line x1="0" y1="192" x2="600" y2="192"/>
<line x1="0" y1="216" x2="600" y2="216"/>
<line x1="0" y1="240" x2="600" y2="240"/>
<line x1="0" y1="264" x2="600" y2="264"/>
<line x1="0" y1="288" x2="600" y2="288"/>
<line x1="0" y1="312" x2="600" y2="312"/>
<line x1="0" y1="336" x2="600" y2="336"/>
<line x1="0" y1="360" x2="600" y2="360"/>
<line x1="0" y1="384" x2="600" y2="384"/>
<line x1="0" y1="408" x2="600" y2="408"/>
<line x1="0" y1="432" x2="600" y2="432"/>
<line x1="0" y1="456" x2="600" y2="456"/>
<line x1="0" y1="480" x2="600" y2="480"/>
<line x1="0" y1="504" x2="600" y2="504"/>
</g>
<path d="M 14,32 L 14,14 L 32,14" stroke="#1B1F22" stroke-opacity="0.45" stroke-width="1.2" fill="none"/>
<path d="M 586,32 L 586,14 L 568,14" stroke="#1B1F22" stroke-opacity="0.45" stroke-width="1.2" fill="none"/>
<path d="M 14,488 L 14,506 L 32,506" stroke="#1B1F22" stroke-opacity="0.45" stroke-width="1.2" fill="none"/>
<path d="M 586,488 L 586,506 L 568,506" stroke="#1B1F22" stroke-opacity="0.45" stroke-width="1.2" fill="none"/>
<text x="20" y="40" font-family="IBM Plex Mono, monospace" font-size="11" fill="#1B1F22" fill-opacity="0.5" letter-spacing="1">REF. MS-01</text>
<text x="20" y="56" font-family="IBM Plex Mono, monospace" font-size="11" fill="#9C7A2E" fill-opacity="0.75" letter-spacing="1">STRUCTURED CABLING PLAN</text>
<rect x="70" y="150" width="300" height="64" fill="none" stroke="#1B1F22" stroke-opacity="0.55" stroke-width="1.3"/>
<rect x="76.0" y="156.0" width="13.0" height="20.0" fill="none" stroke="#1B1F22" stroke-opacity="0.3" stroke-width="0.8"/>
<text x="82.5" y="180.0" font-family="IBM Plex Mono, monospace" font-size="7" fill="#1B1F22" fill-opacity="0.5" text-anchor="middle">1</text>
<rect x="101.0" y="156.0" width="13.0" height="20.0" fill="none" stroke="#1B1F22" stroke-opacity="0.3" stroke-width="0.8"/>
<rect x="126.0" y="156.0" width="13.0" height="20.0" fill="none" stroke="#1B1F22" stroke-opacity="0.3" stroke-width="0.8"/>
<rect x="151.0" y="156.0" width="13.0" height="20.0" fill="none" stroke="#1B1F22" stroke-opacity="0.3" stroke-width="0.8"/>
<rect x="176.0" y="156.0" width="13.0" height="20.0" fill="none" stroke="#1B1F22" stroke-opacity="0.3" stroke-width="0.8"/>
<rect x="201.0" y="156.0" width="13.0" height="20.0" fill="none" stroke="#1B1F22" stroke-opacity="0.3" stroke-width="0.8"/>
<rect x="226.0" y="156.0" width="13.0" height="20.0" fill="none" stroke="#1B1F22" stroke-opacity="0.3" stroke-width="0.8"/>
<rect x="251.0" y="156.0" width="13.0" height="20.0" fill="none" stroke="#1B1F22" stroke-opacity="0.3" stroke-width="0.8"/>
<rect x="276.0" y="156.0" width="13.0" height="20.0" fill="none" stroke="#1B1F22" stroke-opacity="0.3" stroke-width="0.8"/>
<rect x="301.0" y="156.0" width="13.0" height="20.0" fill="none" stroke="#1B1F22" stroke-opacity="0.3" stroke-width="0.8"/>
<rect x="326.0" y="156.0" width="13.0" height="20.0" fill="none" stroke="#1B1F22" stroke-opacity="0.3" stroke-width="0.8"/>
<rect x="351.0" y="156.0" width="13.0" height="20.0" fill="none" stroke="#1B1F22" stroke-opacity="0.3" stroke-width="0.8"/>
<text x="357.5" y="180.0" font-family="IBM Plex Mono, monospace" font-size="7" fill="#1B1F22" fill-opacity="0.5" text-anchor="middle">12</text>
<rect x="76.0" y="188.0" width="13.0" height="20.0" fill="none" stroke="#1B1F22" stroke-opacity="0.3" stroke-width="0.8"/>
<text x="82.5" y="212.0" font-family="IBM Plex Mono, monospace" font-size="7" fill="#1B1F22" fill-opacity="0.5" text-anchor="middle">13</text>
<rect x="101.0" y="188.0" width="13.0" height="20.0" fill="none" stroke="#1B1F22" stroke-opacity="0.3" stroke-width="0.8"/>
<rect x="126.0" y="188.0" width="13.0" height="20.0" fill="none" stroke="#1B1F22" stroke-opacity="0.3" stroke-width="0.8"/>
<rect x="151.0" y="188.0" width="13.0" height="20.0" fill="none" stroke="#1B1F22" stroke-opacity="0.3" stroke-width="0.8"/>
<rect x="176.0" y="188.0" width="13.0" height="20.0" fill="none" stroke="#1B1F22" stroke-opacity="0.3" stroke-width="0.8"/>
<rect x="201.0" y="188.0" width="13.0" height="20.0" fill="none" stroke="#1B1F22" stroke-opacity="0.3" stroke-width="0.8"/>
<rect x="226.0" y="188.0" width="13.0" height="20.0" fill="none" stroke="#1B1F22" stroke-opacity="0.3" stroke-width="0.8"/>
<rect x="251.0" y="188.0" width="13.0" height="20.0" fill="none" stroke="#1B1F22" stroke-opacity="0.3" stroke-width="0.8"/>
<rect x="276.0" y="188.0" width="13.0" height="20.0" fill="none" stroke="#1B1F22" stroke-opacity="0.3" stroke-width="0.8"/>
<rect x="301.0" y="188.0" width="13.0" height="20.0" fill="none" stroke="#1B1F22" stroke-opacity="0.3" stroke-width="0.8"/>
<rect x="326.0" y="188.0" width="13.0" height="20.0" fill="none" stroke="#1B1F22" stroke-opacity="0.3" stroke-width="0.8"/>
<rect x="351.0" y="188.0" width="13.0" height="20.0" fill="none" stroke="#1B1F22" stroke-opacity="0.3" stroke-width="0.8"/>
<text x="357.5" y="212.0" font-family="IBM Plex Mono, monospace" font-size="7" fill="#1B1F22" fill-opacity="0.5" text-anchor="middle">24</text>
<text x="70" y="140" font-family="IBM Plex Mono, monospace" font-size="11" fill="#1B1F22" fill-opacity="0.6">PATCH PANEL A · 24-PORT CAT6A</text>
<line x1="70" y1="244" x2="370" y2="244" stroke="#1B1F22" stroke-opacity="0.4" stroke-width="1"/>
<line x1="70" y1="238" x2="70" y2="250" stroke="#1B1F22" stroke-opacity="0.4" stroke-width="1"/>
<line x1="370" y1="238" x2="370" y2="250" stroke="#1B1F22" stroke-opacity="0.4" stroke-width="1"/>
<text x="220.0" y="262" font-family="IBM Plex Mono, monospace" font-size="10" fill="#1B1F22" fill-opacity="0.5" text-anchor="middle">19&#34; RACK WIDTH</text>
<path d="M 82.5,150 C 82.5,110 205,90 220,78" stroke="#9C7A2E" stroke-opacity="0.55" stroke-width="1" fill="none"/>
<path d="M 232.5,150 C 232.5,110 235,90 220,78" stroke="#9C7A2E" stroke-opacity="0.55" stroke-width="1" fill="none"/>
<path d="M 82.5,150 C 82.5,110 205,90 220,78" stroke="#9C7A2E" stroke-opacity="0.55" stroke-width="1" fill="none"/>
<path d="M 232.5,150 C 232.5,110 235,90 220,78" stroke="#9C7A2E" stroke-opacity="0.55" stroke-width="1" fill="none"/>
<rect x="175.0" y="43.0" width="90" height="34" fill="#F1F2EC" stroke="#1B1F22" stroke-opacity="0.6" stroke-width="1.3"/>
<text x="220" y="64" font-family="IBM Plex Mono, monospace" font-size="10" fill="#1B1F22" fill-opacity="0.7" text-anchor="middle">SW-01</text>
<line x1="265.0" y1="60.0" x2="440.0" y2="60.0" stroke="#9C7A2E" stroke-width="1.4"/>
<circle cx="470" cy="60" r="26" fill="none" stroke="#1B1F22" stroke-opacity="0.55" stroke-width="1.3"/>
<circle cx="470" cy="60" r="19" fill="none" stroke="#9C7A2E" stroke-opacity="0.5" stroke-width="1" stroke-dasharray="1 4"/>
<text x="470" y="64" font-family="IBM Plex Mono, monospace" font-size="9" fill="#1B1F22" fill-opacity="0.6" text-anchor="middle">CORE</text>
<rect x="400" y="220" width="130" height="230" fill="none" stroke="#1B1F22" stroke-opacity="0.55" stroke-width="1.3"/>
<line x1="400" y1="220.0" x2="530" y2="220.0" stroke="#1B1F22" stroke-opacity="0.22" stroke-width="0.8"/>
<line x1="400" y1="243.0" x2="530" y2="243.0" stroke="#1B1F22" stroke-opacity="0.22" stroke-width="0.8"/>
<rect x="410" y="247.0" width="110" height="15.0" fill="#9C7A2E" fill-opacity="0.12" stroke="#9C7A2E" stroke-opacity="0.5" stroke-width="0.8"/>
<line x1="400" y1="266.0" x2="530" y2="266.0" stroke="#1B1F22" stroke-opacity="0.22" stroke-width="0.8"/>
<line x1="400" y1="289.0" x2="530" y2="289.0" stroke="#1B1F22" stroke-opacity="0.22" stroke-width="0.8"/>
<line x1="400" y1="312.0" x2="530" y2="312.0" stroke="#1B1F22" stroke-opacity="0.22" stroke-width="0.8"/>
<rect x="410" y="316.0" width="110" height="15.0" fill="#9C7A2E" fill-opacity="0.12" stroke="#9C7A2E" stroke-opacity="0.5" stroke-width="0.8"/>
<line x1="400" y1="335.0" x2="530" y2="335.0" stroke="#1B1F22" stroke-opacity="0.22" stroke-width="0.8"/>
<line x1="400" y1="358.0" x2="530" y2="358.0" stroke="#1B1F22" stroke-opacity="0.22" stroke-width="0.8"/>
<line x1="400" y1="381.0" x2="530" y2="381.0" stroke="#1B1F22" stroke-opacity="0.22" stroke-width="0.8"/>
<rect x="410" y="385.0" width="110" height="15.0" fill="#9C7A2E" fill-opacity="0.12" stroke="#9C7A2E" stroke-opacity="0.5" stroke-width="0.8"/>
<line x1="400" y1="404.0" x2="530" y2="404.0" stroke="#1B1F22" stroke-opacity="0.22" stroke-width="0.8"/>
<line x1="400" y1="427.0" x2="530" y2="427.0" stroke="#1B1F22" stroke-opacity="0.22" stroke-width="0.8"/>
<text x="465.0" y="210" font-family="IBM Plex Mono, monospace" font-size="11" fill="#1B1F22" fill-opacity="0.6" text-anchor="middle">RACK R-01 · 12U</text>
<line x1="470" y1="86" x2="465.0" y2="220" stroke="#9C7A2E" stroke-opacity="0.55" stroke-width="1"/>
<line x1="70" y1="470" x2="380" y2="470" stroke="#1B1F22" stroke-opacity="0.28" stroke-width="1" stroke-dasharray="4 3"/>
<text x="70" y="486" font-family="IBM Plex Mono, monospace" font-size="10" fill="#1B1F22" fill-opacity="0.5">OS2 SINGLEMODE FIBER BACKBONE</text>
</svg>