<svg xmlns="http://www.w3.org/2000/svg" viewBox="0 0 600 520" fill="none">
<g stroke="#1B1F22" stroke-opacity="0.06" stroke-width="1">
<line x1="0" y1="0" x2="0" y2="520"/>
<line x1="24" y1="0" x2="24" y2="520"/>
<line x1="48" y1="0" x2="48" y2="520"/>
<line x1="72" y1="0" x2="72" y2="520"/>
<line x1="96" y1="0" x2="96" y2="520"/>
<line x1="120" y1="0" x2="120" y2="520"/>
<line x1="144" y1="0" x2="144" y2="520"/>
<line x1="168" y1="0" x2="168" y2="520"/>
<line x1="192" y1="0" x2="192" y2="520"/>
<line x1="216" y1="0" x2="216" y2="520"/>
<line x1="240" y1="0" x2="240" y2="520"/>
<line x1="264" y1="0" x2="264" y2="520"/>
<line x1="288" y1="0" x2="288" y2="520"/>
<line x1="312" y1="0" x2="312" y2="520"/>
<line x1="336" y1="0" x2="336" y2="520"/>
<line x1="360" y1="0" x2="360" y2="520"/>
<line x1="384" y1="0" x2="384" y2="520"/>
<line x1="408" y1="0" x2="408" y2="520"/>
<line x1="432" y1="0" x2="432" y2="520"/>
<line x1="456" y1="0" x2="456" y2="520"/>
<line x1="480" y1="0" x2="480" y2="520"/>
<line x1="504" y1="0" x2="504" y2="520"/>
<line x1="528" y1="0" x2="528" y2="520"/>
<line x1="552" y1="0" x2="552" y2="520"/>
<line x1="576" y1="0" x2="576" y2="520"/>
<line x1="600" y1="0" x2="600" y2="520"/>
<line x1="0" y1="0" x2="600" y2="0"/>
<line x1="0" y1="24" x2="600" y2="24"/>
<line x1="0" y1="48" x2="600" y2="48"/>
<line x1="0" y1="72" x2="600" y2="72"/>
<line x1="0" y1="96" x2="600" y2="96"/>
<line x1="0" y1="120" x2="600" y2="120"/>
<line x1="0" y1="144" x2="600" y2="144"/>
<line x1="0" y1="168" x2="600" y2="168"/>
<line x1="0" y1="192" x2="600" y2="192"/>
<line x1="0" y1="216" x2="600" y2="216"/>
<line x1="0" y1="240" x2="600" y2="240"/>
<line x1="0" y1="264" x2="600" y2="264"/>
<line x1="0" y1="288" x2="600" y2="288"/>
<line x1="0" y1="312" x2="600" y2="312"/>
<line x1="0" y1="336" x2="600" y2="336"/>
<line x1="0" y1="360" x2="600" y2="360"/>
<line x1="0" y1="384" x2="600" y2="384"/>
<line x1="0" y1="408" x2="600" y2="408"/>
<line x1="0" y1="432" x2="600" y2="432"/>
<line x1="0" y1="456" x2="600" y2="456"/>
<line x1="0" y1="480" x2="600" y2="480"/>
<line x1="0" y1="504" x2="600" y2="504"/>
</g>
<line x1="340" y1="8" x2="340" y2="512" stroke="#9C7A2E" stroke-width="1" stroke-dasharray="1 5" opacity="0.6"/>
<line x1="8" y1="260" x2="592" y2="260" stroke="#1B1F22" stroke-width="1" stroke-dasharray="1 5" opacity="0.22"/>
<circle cx="340" cy="260" r="170" stroke="#1B1F22" stroke-opacity="0.5" stroke-width="1.2"/>
<circle cx="340" cy="260" r="136" stroke="#1B1F22" stroke-opacity="0.22" stroke-width="1"/>
<circle cx="340" cy="260" r="102" stroke="#9C7A2E" stroke-opacity="0.55" stroke-width="1" stroke-dasharray="1 4"/>
<line x1="340.0" y1="90.0" x2="340.0" y2="112.0" stroke="#9C7A2E" stroke-opacity="0.85" stroke-width="1.8"/>
<line x1="354.8" y1="90.6" x2="354.2" y2="97.6" stroke="#1B1F22" stroke-opacity="0.28" stroke-width="1"/>
<line x1="369.5" y1="92.6" x2="368.3" y2="99.5" stroke="#1B1F22" stroke-opacity="0.28" stroke-width="1"/>
<line x1="384.0" y1="95.8" x2="382.2" y2="102.6" stroke="#1B1F22" stroke-opacity="0.28" stroke-width="1"/>
<line x1="398.1" y1="100.3" x2="395.7" y2="106.8" stroke="#1B1F22" stroke-opacity="0.28" stroke-width="1"/>
<line x1="411.8" y1="105.9" x2="408.9" y2="112.3" stroke="#1B1F22" stroke-opacity="0.28" stroke-width="1"/>
<line x1="425.0" y1="112.8" x2="418.0" y2="124.9" stroke="#1B1F22" stroke-opacity="0.5" stroke-width="1.2"/>
<line x1="437.5" y1="120.7" x2="433.5" y2="126.5" stroke="#1B1F22" stroke-opacity="0.28" stroke-width="1"/>
<line x1="449.3" y1="129.8" x2="444.8" y2="135.1" stroke="#1B1F22" stroke-opacity="0.28" stroke-width="1"/>
<line x1="460.2" y1="139.8" x2="455.3" y2="144.7" stroke="#1B1F22" stroke-opacity="0.28" stroke-width="1"/>
<line x1="470.2" y1="150.7" x2="464.9" y2="155.2" stroke="#1B1F22" stroke-opacity="0.28" stroke-width="1"/>
<line x1="479.3" y1="162.5" x2="473.5" y2="166.5" stroke="#1B1F22" stroke-opacity="0.28" stroke-width="1"/>
<line x1="487.2" y1="175.0" x2="475.1" y2="182.0" stroke="#1B1F22" stroke-opacity="0.5" stroke-width="1.2"/>
<line x1="494.1" y1="188.2" x2="487.7" y2="191.1" stroke="#1B1F22" stroke-opacity="0.28" stroke-width="1"/>
<line x1="499.7" y1="201.9" x2="493.2" y2="204.3" stroke="#1B1F22" stroke-opacity="0.28" stroke-width="1"/>
<line x1="504.2" y1="216.0" x2="497.4" y2="217.8" stroke="#1B1F22" stroke-opacity="0.28" stroke-width="1"/>
<line x1="507.4" y1="230.5" x2="500.5" y2="231.7" stroke="#1B1F22" stroke-opacity="0.28" stroke-width="1"/>
<line x1="509.4" y1="245.2" x2="502.4" y2="245.8" stroke="#1B1F22" stroke-opacity="0.28" stroke-width="1"/>
<line x1="510.0" y1="260.0" x2="488.0" y2="260.0" stroke="#9C7A2E" stroke-opacity="0.85" stroke-width="1.8"/>
<line x1="509.4" y1="274.8" x2="502.4" y2="274.2" stroke="#1B1F22" stroke-opacity="0.28" stroke-width="1"/>
<line x1="507.4" y1="289.5" x2="500.5" y2="288.3" stroke="#1B1F22" stroke-opacity="0.28" stroke-width="1"/>
<line x1="504.2" y1="304.0" x2="497.4" y2="302.2" stroke="#1B1F22" stroke-opacity="0.28" stroke-width="1"/>
<line x1="499.7" y1="318.1" x2="493.2" y2="315.7" stroke="#1B1F22" stroke-opacity="0.28" stroke-width="1"/>
<line x1="494.1" y1="331.8" x2="487.7" y2="328.9" stroke="#1B1F22" stroke-opacity="0.28" stroke-width="1"/>
<line x1="487.2" y1="345.0" x2="475.1" y2="338.0" stroke="#1B1F22" stroke-opacity="0.5" stroke-width="1.2"/>
<line x1="479.3" y1="357.5" x2="473.5" y2="353.5" stroke="#1B1F22" stroke-opacity="0.28" stroke-width="1"/>
<line x1="470.2" y1="369.3" x2="464.9" y2="364.8" stroke="#1B1F22" stroke-opacity="0.28" stroke-width="1"/>
<line x1="460.2" y1="380.2" x2="455.3" y2="375.3" stroke="#1B1F22" stroke-opacity="0.28" stroke-width="1"/>
<line x1="449.3" y1="390.2" x2="444.8" y2="384.9" stroke="#1B1F22" stroke-opacity="0.28" stroke-width="1"/>
<line x1="437.5" y1="399.3" x2="433.5" y2="393.5" stroke="#1B1F22" stroke-opacity="0.28" stroke-width="1"/>
<line x1="425.0" y1="407.2" x2="418.0" y2="395.1" stroke="#1B1F22" stroke-opacity="0.5" stroke-width="1.2"/>
<line x1="411.8" y1="414.1" x2="408.9" y2="407.7" stroke="#1B1F22" stroke-opacity="0.28" stroke-width="1"/>
<line x1="398.1" y1="419.7" x2="395.7" y2="413.2" stroke="#1B1F22" stroke-opacity="0.28" stroke-width="1"/>
<line x1="384.0" y1="424.2" x2="382.2" y2="417.4" stroke="#1B1F22" stroke-opacity="0.28" stroke-width="1"/>
<line x1="369.5" y1="427.4" x2="368.3" y2="420.5" stroke="#1B1F22" stroke-opacity="0.28" stroke-width="1"/>
<line x1="354.8" y1="429.4" x2="354.2" y2="422.4" stroke="#1B1F22" stroke-opacity="0.28" stroke-width="1"/>
<line x1="340.0" y1="430.0" x2="340.0" y2="408.0" stroke="#9C7A2E" stroke-opacity="0.85" stroke-width="1.8"/>
<line x1="325.2" y1="429.4" x2="325.8" y2="422.4" stroke="#1B1F22" stroke-opacity="0.28" stroke-width="1"/>
<line x1="310.5" y1="427.4" x2="311.7" y2="420.5" stroke="#1B1F22" stroke-opacity="0.28" stroke-width="1"/>
<line x1="296.0" y1="424.2" x2="297.8" y2="417.4" stroke="#1B1F22" stroke-opacity="0.28" stroke-width="1"/>
<line x1="281.9" y1="419.7" x2="284.3" y2="413.2" stroke="#1B1F22" stroke-opacity="0.28" stroke-width="1"/>
<line x1="268.2" y1="414.1" x2="271.1" y2="407.7" stroke="#1B1F22" stroke-opacity="0.28" stroke-width="1"/>
<line x1="255.0" y1="407.2" x2="262.0" y2="395.1" stroke="#1B1F22" stroke-opacity="0.5" stroke-width="1.2"/>
<line x1="242.5" y1="399.3" x2="246.5" y2="393.5" stroke="#1B1F22" stroke-opacity="0.28" stroke-width="1"/>
<line x1="230.7" y1="390.2" x2="235.2" y2="384.9" stroke="#1B1F22" stroke-opacity="0.28" stroke-width="1"/>
<line x1="219.8" y1="380.2" x2="224.7" y2="375.3" stroke="#1B1F22" stroke-opacity="0.28" stroke-width="1"/>
<line x1="209.8" y1="369.3" x2="215.1" y2="364.8" stroke="#1B1F22" stroke-opacity="0.28" stroke-width="1"/>
<line x1="200.7" y1="357.5" x2="206.5" y2="353.5" stroke="#1B1F22" stroke-opacity="0.28" stroke-width="1"/>
<line x1="192.8" y1="345.0" x2="204.9" y2="338.0" stroke="#1B1F22" stroke-opacity="0.5" stroke-width="1.2"/>
<line x1="185.9" y1="331.8" x2="192.3" y2="328.9" stroke="#1B1F22" stroke-opacity="0.28" stroke-width="1"/>
<line x1="180.3" y1="318.1" x2="186.8" y2="315.7" stroke="#1B1F22" stroke-opacity="0.28" stroke-width="1"/>
<line x1="175.8" y1="304.0" x2="182.6" y2="302.2" stroke="#1B1F22" stroke-opacity="0.28" stroke-width="1"/>
<line x1="172.6" y1="289.5" x2="179.5" y2="288.3" stroke="#1B1F22" stroke-opacity="0.28" stroke-width="1"/>
<line x1="170.6" y1="274.8" x2="177.6" y2="274.2" stroke="#1B1F22" stroke-opacity="0.28" stroke-width="1"/>
<line x1="170.0" y1="260.0" x2="192.0" y2="260.0" stroke="#9C7A2E" stroke-opacity="0.85" stroke-width="1.8"/>
<line x1="170.6" y1="245.2" x2="177.6" y2="245.8" stroke="#1B1F22" stroke-opacity="0.28" stroke-width="1"/>
<line x1="172.6" y1="230.5" x2="179.5" y2="231.7" stroke="#1B1F22" stroke-opacity="0.28" stroke-width="1"/>
<line x1="175.8" y1="216.0" x2="182.6" y2="217.8" stroke="#1B1F22" stroke-opacity="0.28" stroke-width="1"/>
<line x1="180.3" y1="201.9" x2="186.8" y2="204.3" stroke="#1B1F22" stroke-opacity="0.28" stroke-width="1"/>
<line x1="185.9" y1="188.2" x2="192.3" y2="191.1" stroke="#1B1F22" stroke-opacity="0.28" stroke-width="1"/>
<line x1="192.8" y1="175.0" x2="204.9" y2="182.0" stroke="#1B1F22" stroke-opacity="0.5" stroke-width="1.2"/>
<line x1="200.7" y1="162.5" x2="206.5" y2="166.5" stroke="#1B1F22" stroke-opacity="0.28" stroke-width="1"/>
<line x1="209.8" y1="150.7" x2="215.1" y2="155.2" stroke="#1B1F22" stroke-opacity="0.28" stroke-width="1"/>
<line x1="219.8" y1="139.8" x2="224.7" y2="144.7" stroke="#1B1F22" stroke-opacity="0.28" stroke-width="1"/>
<line x1="230.7" y1="129.8" x2="235.2" y2="135.1" stroke="#1B1F22" stroke-opacity="0.28" stroke-width="1"/>
<line x1="242.5" y1="120.7" x2="246.5" y2="126.5" stroke="#1B1F22" stroke-opacity="0.28" stroke-width="1"/>
<line x1="255.0" y1="112.8" x2="262.0" y2="124.9" stroke="#1B1F22" stroke-opacity="0.5" stroke-width="1.2"/>
<line x1="268.2" y1="105.9" x2="271.1" y2="112.3" stroke="#1B1F22" stroke-opacity="0.28" stroke-width="1"/>
<line x1="281.9" y1="100.3" x2="284.3" y2="106.8" stroke="#1B1F22" stroke-opacity="0.28" stroke-width="1"/>
<line x1="296.0" y1="95.8" x2="297.8" y2="102.6" stroke="#1B1F22" stroke-opacity="0.28" stroke-width="1"/>
<line x1="310.5" y1="92.6" x2="311.7" y2="99.5" stroke="#1B1F22" stroke-opacity="0.28" stroke-width="1"/>
<line x1="325.2" y1="90.6" x2="325.8" y2="97.6" stroke="#1B1F22" stroke-opacity="0.28" stroke-width="1"/>
<text x="340.0" y="74.0" font-family="IBM Plex Mono, monospace" font-size="13" font-weight="600" fill="#1B1F22" fill-opacity="0.6" text-anchor="middle">N</text>
<text x="530.0" y="264.0" font-family="IBM Plex Mono, monospace" font-size="13" font-weight="600" fill="#1B1F22" fill-opacity="0.6" text-anchor="middle">E</text>
<text x="340.0" y="454.0" font-family="IBM Plex Mono, monospace" font-size="13" font-weight="600" fill="#1B1F22" fill-opacity="0.6" text-anchor="middle">S</text>
<text x="150.0" y="264.0" font-family="IBM Plex Mono, monospace" font-size="13" font-weight="600" fill="#1B1F22" fill-opacity="0.6" text-anchor="middle">W</text>
<line x1="330" y1="260" x2="350" y2="260" stroke="#9C7A2E" stroke-width="1.4"/>
<line x1="340" y1="250" x2="340" y2="270" stroke="#9C7A2E" stroke-width="1.4"/>
<circle cx="340" cy="260" r="3" fill="none" stroke="#9C7A2E" stroke-width="1.4"/>
<line x1="170" y1="476" x2="510" y2="476" stroke="#1B1F22" stroke-opacity="0.4" stroke-width="1"/>
<line x1="170" y1="470" x2="170" y2="482" stroke="#1B1F22" stroke-opacity="0.4" stroke-width="1"/>
<line x1="510" y1="470" x2="510" y2="482" stroke="#1B1F22" stroke-opacity="0.4" stroke-width="1"/>
<text x="340" y="496" font-family="IBM Plex Mono, monospace" font-size="11" fill="#1B1F22" fill-opacity="0.55" text-anchor="middle">DIA. 340 UNITS</text>
<line x1="556" y1="90" x2="556" y2="430" stroke="#1B1F22" stroke-opacity="0.4" stroke-width="1"/>
<line x1="550" y1="90" x2="562" y2="90" stroke="#1B1F22" stroke-opacity="0.4" stroke-width="1"/>
<line x1="550" y1="430" x2="562" y2="430" stroke="#1B1F22" stroke-opacity="0.4" stroke-width="1"/>
<path d="M 14,32 L 14,14 L 32,14" stroke="#1B1F22" stroke-opacity="0.45" stroke-width="1.2" fill="none"/>
<path d="M 586,32 L 586,14 L 568,14" stroke="#1B1F22" stroke-opacity="0.45" stroke-width="1.2" fill="none"/>
<path d="M 14,488 L 14,506 L 32,506" stroke="#1B1F22" stroke-opacity="0.45" stroke-width="1.2" fill="none"/>
<path d="M 586,488 L 586,506 L 568,506" stroke="#1B1F22" stroke-opacity="0.45" stroke-width="1.2" fill="none"/>
<text x="20" y="40" font-family="IBM Plex Mono, monospace" font-size="11" fill="#1B1F22" fill-opacity="0.5" letter-spacing="1">REF. MS-01</text>
<text x="20" y="56" font-family="IBM Plex Mono, monospace" font-size="11" fill="#9C7A2E" fill-opacity="0.75" letter-spacing="1">BEARING TRUE</text>
</svg>